<svg width="14" height="14" viewBox="0 0 14 14" fill="none" xmlns="http://www.w3.org/2000/svg">
    <g clip-path="url(#clip0_116_1644)">
        <path d="M7 14C3.15 14 0 10.85 0 7C0 3.15 3.15 0 7 0C10.85 0 14 3.15 14 7C14 10.85 10.85 14 7 14ZM7 0.875C3.63125 0.875 0.875 3.63125 0.875 7C0.875 10.3687 3.63125 13.125 7 13.125C10.3687 13.125 13.125 10.3687 13.125 7C13.125 3.63125 10.3687 0.875 7 0.875Z"
              fill="#9ad1b3"/>
        <path d="M5.68638 9.8001L3.63013 7.74385L4.24263 7.13135L5.68638 8.5751L9.75513 4.50635L10.3676 5.11885L5.68638 9.8001Z"
              fill="#9ad1b3"/>
    </g>
    <defs>
        <clipPath id="clip0_116_1644">
            <rect width="14" height="14" fill="white"/>
        </clipPath>
    </defs>
</svg>
