<svg width="150" height="60" viewBox="0 0 150 60" fill="none" xmlns="http://www.w3.org/2000/svg">
<path d="M45.1801 27.6722C45.1801 26.2285 45.4983 24.939 46.1348 23.8037C46.7852 22.6543 47.6639 21.7643 48.7708 21.1335C49.8917 20.4887 51.1439 20.1664 52.5277 20.1664C54.1467 20.1664 55.565 20.5869 56.7827 21.4279C58.0004 22.2688 58.8513 23.4322 59.3357 24.918H55.9939C55.6618 24.2171 55.1914 23.6915 54.5825 23.3411C53.9875 22.9907 53.2957 22.8155 52.5069 22.8155C51.6628 22.8155 50.9087 23.0187 50.2445 23.4252C49.5942 23.8177 49.0822 24.3783 48.7086 25.1072C48.3488 25.8361 48.1689 26.6911 48.1689 27.6722C48.1689 28.6394 48.3488 29.4944 48.7086 30.2373C49.0822 30.9661 49.5942 31.5338 50.2445 31.9403C50.9087 32.3327 51.6628 32.529 52.5069 32.529C53.2957 32.529 53.9875 32.3538 54.5825 32.0033C55.1914 31.6389 55.6618 31.1063 55.9939 30.4055H59.3357C58.8513 31.9052 58.0004 33.0756 56.7827 33.9166C55.5788 34.7436 54.1605 35.1571 52.5277 35.1571C51.1439 35.1571 49.8917 34.8417 48.7708 34.2109C47.6639 33.5662 46.7852 32.6761 46.1348 31.5408C45.4983 30.4055 45.1801 29.1159 45.1801 27.6722Z" fill="white"/>
<path d="M61.0704 29.165C61.0704 27.9876 61.2987 26.9434 61.7554 26.0323C62.2258 25.1212 62.8554 24.4204 63.6441 23.9298C64.4467 23.4392 65.3392 23.1939 66.3217 23.1939C67.1796 23.1939 67.9268 23.3691 68.5633 23.7196C69.2137 24.07 69.7326 24.5115 70.12 25.0441V23.3832H73.0466V35.0309H70.12V33.3279C69.7464 33.8745 69.2275 34.3301 68.5633 34.6945C67.913 35.0449 67.1588 35.2201 66.3009 35.2201C65.3323 35.2201 64.4467 34.9678 63.6441 34.4632C62.8554 33.9586 62.2258 33.2508 61.7554 32.3397C61.2987 31.4146 61.0704 30.3564 61.0704 29.165ZM70.12 29.207C70.12 28.4922 69.9817 27.8825 69.7049 27.3779C69.4282 26.8593 69.0545 26.4668 68.5841 26.2005C68.1136 25.9202 67.6085 25.78 67.0689 25.78C66.5292 25.78 66.0311 25.9131 65.5745 26.1795C65.1178 26.4458 64.7442 26.8382 64.4536 27.3569C64.1769 27.8614 64.0385 28.4642 64.0385 29.165C64.0385 29.8658 64.1769 30.4825 64.4536 31.0152C64.7442 31.5338 65.1178 31.9333 65.5745 32.2136C66.0449 32.4939 66.5431 32.6341 67.0689 32.6341C67.6085 32.6341 68.1136 32.5009 68.5841 32.2346C69.0545 31.9543 69.4282 31.5618 69.7049 31.0572C69.9817 30.5386 70.12 29.9219 70.12 29.207Z" fill="white"/>
<path d="M82.2568 23.215C83.6267 23.215 84.7337 23.6565 85.5777 24.5395C86.4218 25.4086 86.8439 26.628 86.8439 28.1978V35.0309H83.938V28.5973C83.938 27.6722 83.7097 26.9644 83.2531 26.4738C82.7964 25.9692 82.1738 25.7169 81.385 25.7169C80.5825 25.7169 79.9459 25.9692 79.4755 26.4738C79.0188 26.9644 78.7905 27.6722 78.7905 28.5973V35.0309H75.8847V23.3832H78.7905V24.8339C79.178 24.3293 79.6692 23.9368 80.2642 23.6565C80.873 23.3621 81.5372 23.215 82.2568 23.215Z" fill="white"/>
<path d="M88.8599 29.165C88.8599 27.9876 89.0883 26.9434 89.5449 26.0323C90.0154 25.1212 90.6519 24.4204 91.4544 23.9298C92.257 23.4392 93.1495 23.1939 94.132 23.1939C94.8792 23.1939 95.5918 23.3621 96.2698 23.6985C96.9479 24.0209 97.4875 24.4554 97.8888 25.0021V19.4725H100.836V35.0309H97.8888V33.3069C97.529 33.8816 97.024 34.3441 96.3736 34.6945C95.7233 35.0449 94.9691 35.2201 94.1112 35.2201C93.1426 35.2201 92.257 34.9678 91.4544 34.4632C90.6519 33.9586 90.0154 33.2508 89.5449 32.3397C89.0883 31.4146 88.8599 30.3564 88.8599 29.165ZM97.9096 29.207C97.9096 28.4922 97.7712 27.8825 97.4944 27.3779C97.2177 26.8593 96.8441 26.4668 96.3736 26.2005C95.9032 25.9202 95.3981 25.78 94.8584 25.78C94.3188 25.78 93.8206 25.9131 93.364 26.1795C92.9074 26.4458 92.5338 26.8382 92.2432 27.3569C91.9664 27.8614 91.8281 28.4642 91.8281 29.165C91.8281 29.8658 91.9664 30.4825 92.2432 31.0152C92.5338 31.5338 92.9074 31.9333 93.364 32.2136C93.8345 32.4939 94.3326 32.6341 94.8584 32.6341C95.3981 32.6341 95.9032 32.5009 96.3736 32.2346C96.8441 31.9543 97.2177 31.5618 97.4944 31.0572C97.7712 30.5386 97.9096 29.9219 97.9096 29.207Z" fill="white"/>
<path d="M106.58 19.4725V35.0309H103.674V19.4725H106.58Z" fill="white"/>
<path d="M120.14 28.9547C120.14 29.3752 120.113 29.7537 120.057 30.0901H111.651C111.72 30.9311 112.011 31.5898 112.523 32.0664C113.035 32.543 113.665 32.7813 114.412 32.7813C115.491 32.7813 116.259 32.3117 116.716 31.3726H119.85C119.518 32.4939 118.881 33.419 117.94 34.1479C116.999 34.8627 115.844 35.2201 114.474 35.2201C113.367 35.2201 112.371 34.9748 111.485 34.4843C110.613 33.9797 109.928 33.2718 109.43 32.3608C108.946 31.4497 108.704 30.3984 108.704 29.207C108.704 28.0016 108.946 26.9434 109.43 26.0323C109.915 25.1212 110.593 24.4204 111.464 23.9298C112.336 23.4392 113.339 23.1939 114.474 23.1939C115.567 23.1939 116.543 23.4322 117.401 23.9088C118.272 24.3853 118.943 25.0651 119.414 25.9482C119.898 26.8172 120.14 27.8194 120.14 28.9547ZM117.131 28.1137C117.117 27.3569 116.847 26.7541 116.321 26.3056C115.795 25.8431 115.152 25.6118 114.391 25.6118C113.671 25.6118 113.063 25.8361 112.564 26.2846C112.08 26.7191 111.783 27.3288 111.672 28.1137H117.131Z" fill="white"/>
<path d="M121.514 29.165C121.514 27.9876 121.742 26.9434 122.199 26.0323C122.67 25.1212 123.299 24.4204 124.088 23.9298C124.89 23.4392 125.783 23.1939 126.765 23.1939C127.623 23.1939 128.371 23.3691 129.007 23.7196C129.657 24.07 130.176 24.5115 130.564 25.0441V23.3832H133.49V35.0309H130.564V33.3279C130.19 33.8745 129.671 34.3301 129.007 34.6945C128.357 35.0449 127.603 35.2201 126.745 35.2201C125.776 35.2201 124.89 34.9678 124.088 34.4632C123.299 33.9586 122.67 33.2508 122.199 32.3397C121.742 31.4146 121.514 30.3564 121.514 29.165ZM130.564 29.207C130.564 28.4922 130.425 27.8825 130.149 27.3779C129.872 26.8593 129.498 26.4668 129.028 26.2005C128.557 25.9202 128.052 25.78 127.513 25.78C126.973 25.78 126.475 25.9131 126.018 26.1795C125.562 26.4458 125.188 26.8382 124.897 27.3569C124.621 27.8614 124.482 28.4642 124.482 29.165C124.482 29.8658 124.621 30.4825 124.897 31.0152C125.188 31.5338 125.562 31.9333 126.018 32.2136C126.489 32.4939 126.987 32.6341 127.513 32.6341C128.052 32.6341 128.557 32.5009 129.028 32.2346C129.498 31.9543 129.872 31.5618 130.149 31.0572C130.425 30.5386 130.564 29.9219 130.564 29.207Z" fill="white"/>
<path d="M141.6 25.801H139.587V35.0309H136.64V25.801H135.332V23.3832H136.64V22.7945C136.64 21.3648 137.041 20.3135 137.844 19.6407C138.646 18.968 139.857 18.6526 141.476 18.6946V21.1756C140.77 21.1615 140.279 21.2807 140.002 21.533C139.726 21.7853 139.587 22.2408 139.587 22.8996V23.3832H141.6V25.801Z" fill="white"/>
<g clip-path="url(#clip0_23_1533)">
<mask id="mask0_23_1533" style="mask-type:alpha" maskUnits="userSpaceOnUse" x="0" y="9" width="39" height="39">
<circle cx="19.0086" cy="28.6087" r="19.0086" fill="#F578A5"/>
</mask>
<g mask="url(#mask0_23_1533)">
<circle cx="19.0086" cy="28.6087" r="19.0086" fill="white"/>
<path d="M10.2649 47.342V47.7578H10.6807H28.3118H28.7276V47.342V39.9439C28.7276 39.2644 28.1891 38.7072 27.51 38.684L11.5684 38.1406C10.8558 38.1163 10.2649 38.6874 10.2649 39.4005V47.342Z" fill="#272727" stroke="#272727" stroke-width="0.831626"/>
<g clip-path="url(#clip1_23_1533)">
<path d="M13.9273 22.9479C17.8011 17.5618 16.1348 13.1776 16.1395 13.1724C16.0574 12.9528 16.1688 12.7083 16.3884 12.6262C16.4991 12.5847 16.6221 12.5914 16.7277 12.6445C23.7193 15.9901 26.7279 20.3088 27.3041 24.2135C27.5331 25.7305 27.39 27.2805 26.8869 28.73C26.4259 30.0674 25.6581 31.2783 24.6449 32.2655C22.696 34.1476 19.9724 35.0153 17.2844 34.1357C16.5968 33.9113 15.9479 33.5822 15.3608 33.1599C14.1829 32.3145 13.2894 31.1315 12.7986 29.7672C12.2778 28.3081 12.2612 26.7166 12.7516 25.247C13.0224 24.4244 13.419 23.6489 13.9273 22.9479Z" fill="#272727"/>
<path d="M16.2246 13.3113C16.0543 13.1503 16.0468 12.8816 16.2079 12.7114C16.3689 12.5411 16.6376 12.5336 16.8078 12.6947C16.8204 12.7065 16.8321 12.7191 16.8431 12.7324C16.8587 12.7465 20.2343 16.2848 20.7166 23.1236L20.7216 23.1878C20.8257 24.7862 20.7743 26.3909 20.5681 27.9794L22.8763 26.2105C23.0697 26.0779 23.3338 26.1272 23.4664 26.3205C23.5863 26.4955 23.5587 26.7322 23.4015 26.8748L20.385 29.1795C19.7097 33.1498 17.3291 38.7665 20.4805 42.2819C20.6323 42.4605 20.6106 42.7284 20.4319 42.8801C20.2619 43.0246 20.0091 43.0128 19.8533 42.8531C16.0742 38.6407 18.8241 33.4224 19.5766 28.9098L19.5865 28.8465C19.8925 27.0508 19.9974 25.2265 19.8992 23.4076L17.1861 21.4197C16.9926 21.2874 16.943 21.0233 17.0752 20.8298C17.2075 20.6362 17.4716 20.5866 17.6652 20.7189C17.6732 20.7244 17.681 20.7301 17.6886 20.7361L19.7908 22.2838C19.135 16.3556 16.2369 13.3256 16.2246 13.3113Z" fill="white"/>
</g>
</g>
</g>
<defs>
<clipPath id="clip0_23_1533">
<rect width="38.0172" height="38.0172" fill="white" transform="translate(0 9.6001)"/>
</clipPath>
<clipPath id="clip1_23_1533">
<rect width="23.3299" height="23.3299" fill="white" transform="translate(2.24084 28.2231) rotate(-48)"/>
</clipPath>
</defs>
</svg>
